Coordinates
version=1
nRows=19
nColumns=38
inDegrees=no

Units are S.I. units (second, meters, Newtons, ...)
If the header above contains a line with 'inDegrees', this indicates whether rotational values are in degrees (yes) or radians (no).

endheader
time	pelvis_tilt	pelvis_list	pelvis_rotation	pelvis_tx	pelvis_ty	pelvis_tz	hip_flexion_r	hip_adduction_r	hip_rotation_r	knee_angle_r	ankle_angle_r	subtalar_angle_r	mtp_angle_r	hip_flexion_l	hip_adduction_l	hip_rotation_l	knee_angle_l	ankle_angle_l	subtalar_angle_l	mtp_angle_l	lumbar_extension	lumbar_bending	lumbar_rotation	arm_flex_r	arm_add_r	arm_rot_r	elbow_flex_r	pro_sup_r	wrist_flex_r	wrist_dev_r	arm_flex_l	arm_add_l	arm_rot_l	elbow_flex_l	pro_sup_l	wrist_flex_l	wrist_dev_l
1.64167	-0.0991846	0.0467176	-0.166054	1.1435	0.938014	-0.323872	0.105997	0.0501453	0.0771329	-0.789008	0.427369	0.0343465	0.000259486	0.916984	-0.0219783	-0.152383	-2.28001	0.0508595	0.0592267	0.000553047	-0.183289	-0.0332021	0.213982	-0.267807	-0.137268	-0.172477	1.76265	1.45584	0.0229923	-0.00384382	-0.803873	-0.206658	-0.1299	1.60287	1.7816	0.0442164	-0.00503466
1.65	-0.108599	0.0684111	-0.156183	1.14678	0.943432	-0.324375	0.0504563	0.0118508	0.0668551	-0.731552	0.340124	0.0343465	0.000259486	0.968731	-0.00605756	-0.157809	-2.2044	0.0571401	0.0592267	0.000553047	-0.162998	-0.0573088	0.222388	-0.263973	-0.137187	-0.174165	1.82578	1.46522	0.0229923	-0.00384382	-0.846399	-0.208014	-0.146978	1.6302	1.76134	0.0442164	-0.00503466
1.65833	-0.118666	0.0914129	-0.142968	1.15047	0.949162	-0.325175	-0.00356141	-0.0268506	0.0534083	-0.673331	0.241753	0.0343465	0.000259486	1.01372	0.0140302	-0.163872	-2.11938	0.0594366	0.0592267	0.000553047	-0.14178	-0.0825395	0.226011	-0.263464	-0.137551	-0.173515	1.88437	1.47141	0.0229923	-0.00384382	-0.88966	-0.208772	-0.164696	1.66143	1.7474	0.0442164	-0.00503466
1.66667	-0.129388	0.114843	-0.12701	1.15436	0.954972	-0.326244	-0.0545596	-0.0639671	0.0391724	-0.617851	0.137688	0.0343465	0.000259486	1.05189	0.0373075	-0.16984	-2.02614	0.0580615	0.0592267	0.000553047	-0.120208	-0.108195	0.225462	-0.26533	-0.138631	-0.170332	1.93684	1.47595	0.0229923	-0.00384382	-0.932937	-0.208536	-0.183071	1.69513	1.73868	0.0442164	-0.00503466
1.675	-0.14061	0.137543	-0.109368	1.15825	0.960674	-0.327482	-0.101009	-0.097334	0.0272128	-0.569115	0.0342115	0.0343465	0.000259486	1.08319	0.0622775	-0.174905	-1.92579	0.0535766	0.0592267	0.000553047	-0.0989162	-0.133342	0.221829	-0.26863	-0.140691	-0.164822	1.98196	1.48059	0.0229923	-0.00384382	-0.975441	-0.206956	-0.202076	1.7301	1.73311	0.0442164	-0.00503466
1.68333	-0.151952	0.158179	-0.0914329	1.16192	0.966134	-0.328716	-0.141642	-0.124815	0.0207372	-0.531178	-0.062233	0.0343465	0.000259486	1.10742	0.087054	-0.178218	-1.81929	0.0466585	0.0592267	0.000553047	-0.0786786	-0.156852	0.216519	-0.272505	-0.143953	-0.157505	2.01884	1.48701	0.0229923	-0.00384382	-1.01629	-0.203774	-0.221603	1.76531	1.72837	0.0442164	-0.00503466
1.69167	-0.162761	0.175388	-0.0747325	1.16521	0.971267	-0.329724	-0.175707	-0.144579	0.0223849	-0.5076	-0.145859	0.0343465	0.000259486	1.12411	0.109598	-0.178978	-1.70749	0.0379229	0.0592267	0.000553047	-0.0604493	-0.177529	0.211044	-0.276264	-0.148547	-0.149128	2.04695	1.4966	0.0229923	-0.00384382	-1.05451	-0.198887	-0.241422	1.7999	1.72245	0.0442164	-0.00503466
1.7	-0.172124	0.187962	-0.0606767	1.16803	0.976024	-0.330286	-0.203124	-0.155381	0.0334992	-0.500943	-0.21234	0.0343465	0.000259486	1.1326	0.128023	-0.176538	-1.59123	0.0277623	0.0592267	0.000553047	-0.0453363	-0.194274	0.206785	-0.279478	-0.154477	-0.140566	2.06611	1.51023	0.0229923	-0.00384382	-1.08906	-0.19239	-0.261146	1.83313	1.71412	0.0442164	-0.00503466
1.70833	-0.178984	0.195057	-0.0503104	1.17035	0.980394	-0.330249	-0.22446	-0.156811	0.0535932	-0.512456	-0.259426	0.0343465	0.000259486	1.13207	0.140907	-0.170533	-1.47131	0.0162449	0.0592267	0.000553047	-0.034504	-0.206254	0.204768	-0.282061	-0.161587	-0.132731	2.07645	1.52804	0.0229923	-0.00384382	-1.1189	-0.184625	-0.280216	1.86433	1.70307	0.0442164	-0.00503466
1.71667	-0.182346	0.196331	-0.0441297	1.17218	0.984389	-0.329561	-0.240742	-0.149436	0.0801975	-0.542041	-0.287181	0.0343465	0.000259486	1.12181	0.14754	-0.160968	-1.34864	0.00309721	0.0592267	0.000553047	-0.0290178	-0.213046	0.205507	-0.284279	-0.169562	-0.126447	2.07847	1.5493	0.0229923	-0.00384382	-1.14308	-0.176168	-0.297937	1.89294	1.68991	0.0442164	-0.00503466
1.725	-0.181481	0.192033	-0.0419951	1.17358	0.988026	-0.328287	-0.253131	-0.134834	0.109202	-0.588474	-0.297759	0.0343465	0.000259486	1.10142	0.148036	-0.148286	-1.22426	-0.0122426	0.0592267	0.000553047	-0.0296312	-0.214761	0.208915	-0.286675	-0.177945	-0.122292	2.07285	1.57233	0.0229923	-0.00384382	-1.16084	-0.16777	-0.313565	1.91848	1.67576	0.0442164	-0.00503466
1.73333	-0.176072	0.183004	-0.0431733	1.17462	0.991342	-0.326591	-0.26262	-0.115448	0.135625	-0.649762	-0.294781	0.0343465	0.000259486	1.07103	0.143309	-0.13337	-1.09942	-0.0305257	0.0592267	0.000553047	-0.0366093	-0.21207	0.21432	-0.28993	-0.186196	-0.120474	2.06039	1.59467	0.0229923	-0.00384382	-1.17175	-0.160251	-0.326439	1.94061	1.66193	0.0442164	-0.00503466
1.74167	-0.166279	0.170575	-0.0464974	1.17539	0.994352	-0.324687	-0.269828	-0.0942729	0.154616	-0.723518	-0.282494	0.0343465	0.000259486	1.03137	0.134878	-0.117453	-0.975621	-0.0525603	0.0592267	0.000553047	-0.049653	-0.206127	0.220618	-0.294727	-0.193748	-0.120811	2.0419	1.6134	0.0229923	-0.00384382	-1.17573	-0.154407	-0.336081	1.95915	1.64961	0.0442164	-0.00503466
1.75	-0.152711	0.156377	-0.0506044	1.176	0.997031	-0.322796	-0.274949	-0.074426	0.162412	-0.807293	-0.264941	0.0343465	0.000259486	0.98386	0.124597	-0.10195	-0.854699	-0.0790219	0.0592267	0.000553047	-0.0679312	-0.198392	0.226476	-0.301613	-0.200093	-0.12279	2.01812	1.6256	0.0229923	-0.00384382	-1.17304	-0.150912	-0.34227	1.97413	1.63961	0.0442164	-0.00503466
1.75833	-0.136318	0.142106	-0.0541875	1.17653	0.999301	-0.321106	-0.277805	-0.0587059	0.157002	-0.89881	-0.245376	0.0343465	0.000259486	0.930451	0.114345	-0.0882151	-0.738912	-0.110179	0.0592267	0.000553047	-0.0902007	-0.190407	0.230566	-0.310895	-0.204845	-0.125695	1.9896	1.62899	0.0229923	-0.00384382	-1.16422	-0.150238	-0.345051	1.98569	1.63225	0.0442164	-0.00503466
1.76667	-0.118246	0.129278	-0.0562077	1.17705	1.00106	-0.319734	-0.277959	-0.0492203	0.138355	-0.996101	-0.225985	0.0343465	0.000259486	0.87357	0.105765	-0.0772531	-0.631	-0.145547	0.0592267	0.000553047	-0.114976	-0.183566	0.231753	-0.32258	-0.207787	-0.128749	1.95672	1.62233	0.0229923	-0.00384382	-1.14999	-0.152598	-0.344689	1.99415	1.62735	0.0442164	-0.00503466
1.775	-0.099703	0.119041	-0.0560305	1.17758	1.00218	-0.318727	-0.274833	-0.0471458	0.108237	-1.09757	-0.20792	0.0343465	0.000259486	0.815913	0.100079	-0.0694632	-0.534163	-0.183579	0.0592267	0.000553047	-0.140712	-0.178929	0.229244	-0.336375	-0.208894	-0.131247	1.91962	1.6057	0.0229923	-0.00384382	-1.13116	-0.157947	-0.341578	1.99986	1.6244	0.0442164	-0.00503466
1.78333	-0.0817986	0.112081	-0.0534734	1.17812	1.00257	-0.318069	-0.267833	-0.0526489	0.0697451	-1.20197	-0.191504	0.0343465	0.000259486	0.760217	0.097994	-0.0645096	-0.451903	-0.221516	0.0592267	0.000553047	-0.165999	-0.177121	0.222661	-0.351739	-0.208318	-0.132636	1.87826	1.58054	0.0229923	-0.00384382	-1.10853	-0.166015	-0.336136	2.0032	1.62266	0.0442164	-0.00503466
1.79167	-0.0654111	0.108593	-0.0487614	1.17863	1.00214	-0.317703	-0.256448	-0.0649417	0.0267272	-1.30832	-0.176531	0.0343465	0.000259486	0.708977	0.0997221	-0.0613637	-0.387698	-0.255534	0.0592267	0.000553047	-0.189713	-0.178318	0.212035	-0.367977	-0.206355	-0.132553	1.83249	1.54933	0.0229923	-0.00384382	-1.08277	-0.176375	-0.328707	2.00451	1.62141	0.0442164	-0.00503466
